<svg width="33.000000" height="36.000000" viewBox="0 0 33 36" fill="none" xmlns="http://www.w3.org/2000/svg" xmlns:xlink="http://www.w3.org/1999/xlink">
	<desc>
			Created with Pixso.
	</desc>
	<defs/>
	<path id="Vector" d="M30.09 10.6C29.96 9.23 29.94 6.88 30.86 6.09C30.88 6.07 30.89 6.05 30.9 6.03C31.65 5.7 32.17 5.24 31.76 4.61L20.73 0L2.85 3.44C2.85 3.44 0.81 3.85 0.99 8.26C1.09 10.66 1.63 11.84 2.11 12.42L0.64 13.03C0.23 13.66 0.75 14.13 1.5 14.46C1.51 14.48 1.53 14.5 1.54 14.51C2.46 15.3 2.44 17.66 2.31 19.02C-0.98 20.32 0.2 20.74 0.2 20.74L0.92 20.98C0.42 21.62 -0.09 22.82 0.01 25.11C0.19 29.52 1.87 29.83 1.87 29.83L13.57 35.1L31.22 29.17C31.22 29.17 32.4 28.74 29.11 27.45C28.98 26.08 28.96 23.73 29.88 22.94C29.89 22.92 29.91 22.9 29.92 22.88C30.67 22.55 31.18 22.09 30.78 21.46L30.01 21.14C30.52 20.71 31.29 19.59 31.41 16.68C31.5 14.69 31.12 13.51 30.68 12.83L32.2 12.32C32.2 12.32 33.38 11.89 30.09 10.6ZM15.33 10.54L18.3 9.7L28.33 6.84L29.82 6.41C29.35 7.62 29.37 9.28 29.45 10.35C29.46 10.59 29.48 10.81 29.5 10.98L27.87 11.54L15.21 15.91L15.33 10.54ZM2.58 14.84L4.07 15.26L13.71 18.01L14.55 18.25L17.07 18.97L17.2 24.34L4.18 19.85L2.9 19.4C2.92 19.24 2.94 19.02 2.96 18.77C3.04 17.71 3.06 16.05 2.58 14.84ZM2 8.05C1.98 6.87 2.13 6.03 2.44 5.59C2.63 5.32 2.86 5.26 3.01 5.26C3.1 5.26 3.16 5.28 3.16 5.28L10.86 8.76L14.7 10.5L14.58 15.91L3.8 11.71L3.23 11.49C3.21 11.48 3.18 11.48 3.16 11.48C3.12 11.47 2.05 11.34 2 8.05ZM13.59 32.76L2.25 28.34C2.23 28.33 2.2 28.33 2.18 28.33C2.13 28.32 1.06 28.19 1.01 24.9C0.99 23.72 1.15 22.88 1.45 22.44C1.64 22.17 1.87 22.11 2.03 22.11C2.11 22.11 2.17 22.13 2.18 22.13L13.72 27.35L13.59 32.76ZM28.46 27.2C28.48 27.44 28.5 27.66 28.52 27.83L14.22 32.76L14.35 27.39L17.4 26.52L17.85 26.67L19.55 25.91L27.34 23.69L28.84 23.26C28.36 24.47 28.38 26.13 28.46 27.2ZM29.25 19.9C29.22 19.9 29.2 19.91 29.17 19.92L28.09 20.34L17.83 24.33L17.7 18.92L21.07 17.4L29.23 13.71C29.23 13.71 29.65 13.58 29.97 14.02C30.27 14.45 30.42 15.3 30.41 16.47C30.35 19.76 29.29 19.9 29.25 19.9Z" fill="#FFFFFF" fill-opacity="1.000000" fill-rule="nonzero"/>
</svg>
