<svg width="283.000000" height="106.000000" viewBox="0 0 283 106" fill="none" xmlns="http://www.w3.org/2000/svg" xmlns:xlink="http://www.w3.org/1999/xlink">
	<desc>
			Created with Pixso.
	</desc>
	<defs>
		<clipPath id="clip257_1802">
			<rect id="books-stack-of-three 2" width="67.055687" height="105.860764" transform="translate(0.000000 -0.696289)" fill="white" fill-opacity="0"/>
		</clipPath>
	</defs>
	<path id="LIBRARY" d="M79.14 28.26L75.83 28.26L75.83 38.06L83.56 38.06L83.56 35.49L79.14 35.49L79.14 28.26ZM87.77 28.26L84.47 28.26L84.47 38.06L87.77 38.06L87.77 28.26ZM98.55 33.87Q98.08 33.25 97.21 32.93Q97.87 32.6 98.21 32.07Q98.22 32.06 98.22 32.05Q98.33 31.88 98.4 31.7Q98.57 31.29 98.57 30.82Q98.57 30.3 98.37 29.88Q98.13 29.34 97.57 28.96Q96.57 28.26 94.6 28.26L89.37 28.26L89.37 38.06L94.88 38.06Q96.9 38.06 97.96 37.35Q98.49 37 98.76 36.51Q99.03 36.01 99.03 35.35Q99.03 34.71 98.77 34.21Q98.68 34.03 98.55 33.87ZM103.5 35.59L104.39 35.59L106.06 38.06L112.92 38.06L113.58 36.35L117.3 36.35L117.96 38.06L121.37 38.06L117.09 28.26L113.84 28.26L109.57 38.03L107.53 35.03Q108.26 34.65 108.71 34.06Q108.81 33.93 108.9 33.79Q108.93 33.74 108.96 33.68Q109.37 32.93 109.37 31.95Q109.37 31.01 108.99 30.27Q108.92 30.13 108.83 29.99Q108.71 29.82 108.58 29.66Q108.07 29.06 107.28 28.7Q106.27 28.26 104.91 28.26L100.19 28.26L100.19 38.06L103.5 38.06L103.5 35.59ZM125.21 35.59L126.11 35.59L127.77 38.06L131.3 38.06L129.24 35.03Q129.97 34.65 130.42 34.06Q130.53 33.93 130.61 33.79Q130.64 33.74 130.67 33.68Q131.09 32.93 131.09 31.95Q131.09 31.01 130.7 30.27Q130.63 30.13 130.54 29.99Q130.43 29.82 130.29 29.66Q129.79 29.06 128.99 28.7Q127.98 28.26 126.62 28.26L121.9 28.26L121.9 38.06L125.21 38.06L125.21 35.59ZM138.02 38.06L138.02 34.5L141.72 28.26L138.52 28.26L136.51 31.64L134.5 28.26L131.02 28.26L134.72 34.46L134.72 38.06L138.02 38.06ZM92.62 32.02L92.62 30.57L94.16 30.57Q94.9 30.57 95.13 30.91Q95.24 31.07 95.24 31.29Q95.24 31.52 95.13 31.68Q94.9 32.02 94.16 32.02L92.62 32.02ZM105.85 31.26Q106.05 31.53 106.05 31.95Q106.05 32.37 105.85 32.65Q105.79 32.73 105.71 32.8Q105.37 33.1 104.7 33.1L103.5 33.1L103.5 30.8L104.7 30.8Q105.37 30.8 105.71 31.1Q105.79 31.17 105.85 31.26ZM127.56 31.26Q127.76 31.53 127.76 31.95Q127.76 32.37 127.56 32.65Q127.5 32.73 127.42 32.8Q127.09 33.1 126.41 33.1L125.21 33.1L125.21 30.8L126.41 30.8Q127.09 30.8 127.42 31.1Q127.5 31.17 127.56 31.26ZM115.44 31.5L116.39 33.97L114.49 33.97L115.44 31.5ZM95.58 35.4Q95.34 35.74 94.6 35.74L92.62 35.74L92.62 34.21L94.6 34.21Q95.34 34.21 95.58 34.55Q95.7 34.72 95.7 34.98Q95.7 35.23 95.58 35.4Z" fill="#FFFFFF" fill-opacity="1.000000" fill-rule="evenodd"/>
	<path id="Admin Panel" d="M96.61 74.1L96.61 64.46L95.68 64.46L95.68 68.56Q95.39 68.11 94.99 67.81Q94.8 67.67 94.59 67.56Q94.53 67.53 94.48 67.51Q93.85 67.21 93.08 67.21Q92.33 67.21 91.68 67.48Q91.51 67.56 91.34 67.65Q91 67.84 90.73 68.09Q90.37 68.43 90.12 68.88Q90.09 68.93 90.06 68.99Q89.68 69.74 89.68 70.68Q89.68 71.61 90.04 72.35Q90.08 72.42 90.12 72.49Q90.37 72.93 90.72 73.27Q91 73.53 91.34 73.72Q91.51 73.82 91.7 73.9Q92.33 74.17 93.08 74.17Q93.88 74.17 94.52 73.85Q94.57 73.83 94.62 73.8Q94.87 73.67 95.08 73.5Q95.46 73.19 95.72 72.75L95.72 74.1L96.61 74.1ZM113.15 65.71Q113.28 65.77 113.44 65.77Q113.61 65.77 113.74 65.7Q113.84 65.66 113.92 65.57Q114 65.49 114.05 65.39Q114.12 65.26 114.12 65.09Q114.12 64.99 114.08 64.89Q114.04 64.76 113.92 64.65Q113.84 64.57 113.75 64.52Q113.61 64.46 113.44 64.46Q113.29 64.46 113.16 64.51Q113.05 64.56 112.96 64.65Q112.85 64.77 112.8 64.9Q112.77 65 112.77 65.11Q112.77 65.24 112.81 65.36Q112.86 65.48 112.96 65.57Q113.05 65.66 113.15 65.71ZM163.09 64.46L162.17 64.46L162.17 74.1L163.09 74.1L163.09 64.46ZM81.94 71.67L87.01 71.67L88.1 74.1L89.12 74.1L84.96 65L84.01 65L79.85 74.1L80.85 74.1L81.94 71.67ZM135.01 65.83Q134.02 65 132.28 65L128.87 65L128.87 74.1L129.83 74.1L129.83 71.23L132.28 71.23Q134.02 71.23 135.01 70.4Q135.34 70.13 135.56 69.78Q136 69.09 136 68.12Q136 67.15 135.56 66.46Q135.34 66.11 135.01 65.83ZM134.32 69.8Q133.6 70.39 132.25 70.39L129.83 70.39L129.83 65.83L132.25 65.83Q133.6 65.83 134.32 66.43Q134.51 66.58 134.65 66.78Q135.03 67.31 135.03 68.12Q135.03 68.88 134.68 69.4Q134.53 69.62 134.32 69.8ZM84.48 66L86.66 70.89L82.29 70.89L84.48 66ZM109.47 67.73Q108.78 67.21 107.71 67.21Q106.84 67.21 106.15 67.56Q106.12 67.58 106.09 67.6Q105.64 67.84 105.33 68.2Q105.14 68.41 105.01 68.66Q104.79 68.17 104.43 67.84Q104.26 67.69 104.06 67.58Q103.43 67.21 102.58 67.21Q101.73 67.21 101.08 67.55Q100.74 67.73 100.47 67.98Q100.24 68.22 100.06 68.51L100.06 67.27L99.18 67.27L99.18 74.1L100.1 74.1L100.1 70.52Q100.1 69.45 100.63 68.81Q100.67 68.75 100.72 68.7Q100.88 68.53 101.07 68.4Q101.61 68.04 102.39 68.04Q103.17 68.04 103.65 68.42Q103.76 68.5 103.85 68.6Q104.37 69.16 104.37 70.23L104.37 74.1L105.29 74.1L105.29 70.52Q105.29 69.43 105.82 68.79Q105.86 68.74 105.9 68.7Q106.05 68.54 106.22 68.42Q106.77 68.04 107.58 68.04Q108.32 68.04 108.8 68.4Q108.92 68.49 109.03 68.6Q109.54 69.16 109.54 70.23L109.54 74.1L110.47 74.1L110.47 70.14Q110.47 68.72 109.76 67.98Q109.74 67.97 109.73 67.95Q109.61 67.83 109.47 67.73ZM121.7 67.7Q121 67.21 119.95 67.21Q119.07 67.21 118.4 67.56Q118 67.76 117.71 68.07Q117.51 68.27 117.35 68.53L117.35 67.27L116.47 67.27L116.47 74.1L117.39 74.1L117.39 70.52Q117.39 69.51 117.88 68.88Q117.95 68.78 118.04 68.7Q118.17 68.56 118.33 68.45Q118.91 68.04 119.79 68.04Q120.63 68.04 121.15 68.46Q121.23 68.53 121.31 68.6Q121.31 68.61 121.31 68.61Q121.84 69.17 121.84 70.23L121.84 74.1L122.76 74.1L122.76 70.14Q122.76 68.8 122.1 68.06Q122.05 68.01 122 67.96Q121.86 67.82 121.7 67.7ZM142.26 67.88Q141.54 67.21 140.21 67.21Q139.43 67.21 138.73 67.43Q138.7 67.44 138.67 67.45Q137.95 67.69 137.43 68.14L137.84 68.82Q138.27 68.45 138.87 68.23Q139.09 68.15 139.32 68.1Q139.71 68.02 140.12 68.02Q141.07 68.02 141.56 68.48Q141.62 68.54 141.67 68.6Q142.06 69.05 142.06 69.82L142.06 70.24L139.88 70.24Q138.51 70.24 137.88 70.77Q137.61 71 137.45 71.29Q137.24 71.68 137.24 72.18Q137.24 72.66 137.44 73.04Q137.61 73.37 137.92 73.62Q138.6 74.17 139.74 74.17Q140.57 74.17 141.18 73.87Q141.64 73.64 141.93 73.27Q142.02 73.16 142.09 73.04L142.09 74.1L142.98 74.1L142.98 69.86Q142.98 68.67 142.38 68.01Q142.33 67.94 142.26 67.88L142.26 67.88ZM150.71 67.7Q150.02 67.21 148.97 67.21Q148.09 67.21 147.42 67.56Q147.02 67.76 146.72 68.07Q146.52 68.27 146.37 68.53L146.37 67.27L145.49 67.27L145.49 74.1L146.41 74.1L146.41 70.52Q146.41 69.51 146.9 68.88Q146.97 68.78 147.05 68.7Q147.19 68.56 147.34 68.45Q147.93 68.04 148.8 68.04Q149.65 68.04 150.16 68.46Q150.25 68.53 150.32 68.6L150.33 68.61Q150.86 69.17 150.86 70.23L150.86 74.1L151.78 74.1L151.78 70.14Q151.78 68.8 151.11 68.06Q151.07 68.01 151.02 67.96Q150.87 67.82 150.71 67.7ZM154.55 70.97L160.27 70.97L160.28 70.68Q160.28 69.69 159.87 68.91Q159.86 68.9 159.85 68.88Q159.6 68.42 159.24 68.08Q158.98 67.84 158.67 67.66Q158.51 67.56 158.34 67.49Q157.72 67.21 156.97 67.21Q156.24 67.21 155.62 67.47Q155.43 67.55 155.25 67.66Q154.96 67.83 154.72 68.05Q154.33 68.4 154.06 68.89Q154.02 68.96 153.98 69.03Q153.62 69.77 153.62 70.68Q153.62 71.51 153.94 72.2Q154 72.34 154.08 72.48Q154.28 72.84 154.57 73.13Q154.9 73.47 155.35 73.72Q155.36 73.73 155.37 73.73Q156.18 74.17 157.21 74.17Q158.03 74.17 158.71 73.88Q159.18 73.69 159.54 73.37Q159.71 73.22 159.85 73.05L159.33 72.45Q159.11 72.71 158.83 72.89Q158.63 73.03 158.41 73.12Q157.88 73.35 157.24 73.35Q156.38 73.35 155.75 72.97Q155.55 72.85 155.37 72.69Q155.1 72.45 154.92 72.16Q154.6 71.65 154.55 70.97ZM113.9 67.27L112.98 67.27L112.98 74.1L113.9 74.1L113.9 67.27ZM155.85 68.25Q156.35 68 156.97 68Q157.61 68 158.13 68.27Q158.4 68.42 158.63 68.64Q158.83 68.82 158.98 69.04Q159.33 69.57 159.4 70.28L154.55 70.28Q154.61 69.57 154.96 69.04Q155.11 68.82 155.31 68.64Q155.56 68.4 155.85 68.25ZM94.17 73.15Q93.71 73.35 93.16 73.35Q92.57 73.35 92.07 73.13Q91.96 73.08 91.85 73.02Q91.65 72.9 91.47 72.75Q91.16 72.47 90.94 72.08Q90.93 72.05 90.91 72.02Q90.61 71.43 90.61 70.68Q90.61 69.93 90.92 69.33Q90.93 69.31 90.94 69.29Q91.16 68.89 91.49 68.61Q91.65 68.46 91.85 68.35Q91.97 68.28 92.09 68.23Q92.58 68.02 93.16 68.02Q93.7 68.02 94.16 68.21Q94.31 68.27 94.45 68.35Q94.67 68.47 94.85 68.63Q95.15 68.91 95.36 69.29Q95.38 69.32 95.39 69.35Q95.7 69.94 95.7 70.68Q95.7 71.42 95.4 72.01Q95.38 72.04 95.36 72.08Q95.16 72.46 94.86 72.73Q94.67 72.89 94.45 73.02Q94.32 73.09 94.17 73.15ZM141.21 73.09Q140.66 73.44 139.88 73.44Q139.07 73.44 138.61 73.1Q138.41 72.94 138.3 72.74Q138.15 72.49 138.15 72.15Q138.15 71.75 138.34 71.49Q138.73 70.93 139.91 70.93L142.06 70.93L142.06 72.05Q141.85 72.55 141.49 72.88Q141.36 72.99 141.22 73.08Q141.22 73.09 141.21 73.09Z" fill="#FFFFFF" fill-opacity="1.000000" fill-rule="evenodd"/>
	<line id="Line 1" x1="76.635010" y1="52.723145" x2="279.398682" y2="52.723145" stroke="#FFFFFF" stroke-opacity="0.590000" stroke-width="1.000000"/>
	<rect id="books-stack-of-three 2" width="67.055687" height="105.860764" transform="translate(0.000000 -0.696289)" fill="#FFFFFF" fill-opacity="0"/>
	<g clip-path="url(#clip257_1802)">
		<path id="Vector" d="M62.27 36.87C62 33.65 61.96 28.1 63.85 26.24C63.88 26.21 63.91 26.16 63.94 26.12C65.49 25.34 66.56 24.24 65.72 22.76L42.88 11.9L5.91 20.02C5.91 20.02 1.68 20.97 2.05 31.36C2.26 37.01 3.38 39.78 4.37 41.15L1.33 42.59C0.49 44.07 1.56 45.17 3.11 45.95C3.14 45.99 3.16 46.04 3.2 46.07C5.09 47.94 5.05 53.48 4.78 56.7C-2.02 59.74 0.42 60.74 0.42 60.74L1.91 61.31C0.87 62.8 -0.18 65.64 0.02 71.02C0.4 81.4 3.87 82.12 3.87 82.12L28.07 94.54L64.59 80.57C64.59 80.57 67.03 79.58 60.23 76.53C59.96 73.32 59.92 67.77 61.82 65.91C61.85 65.87 61.88 65.82 61.9 65.78C63.45 65 64.52 63.9 63.68 62.43L62.09 61.67C63.15 60.66 64.74 58.03 64.99 51.19C65.16 46.48 64.39 43.73 63.49 42.1L66.62 40.91C66.62 40.91 69.07 39.91 62.27 36.87ZM31.72 36.73L37.86 34.74L58.62 28.01L61.71 27C60.72 29.86 60.76 33.76 60.92 36.27C60.96 36.84 61 37.36 61.04 37.76L57.66 39.08L31.46 49.37L31.72 36.73ZM5.34 46.84L8.43 47.84L28.36 54.31L30.1 54.87L35.33 56.57L35.58 69.21L8.66 58.63L6.01 57.59C6.05 57.2 6.09 56.68 6.12 56.11C6.29 53.6 6.33 49.69 5.34 46.84ZM4.14 30.86C4.1 28.09 4.41 26.1 5.04 25.08C5.44 24.43 5.92 24.3 6.24 24.3C6.41 24.3 6.54 24.34 6.55 24.34L22.48 32.54L30.42 36.63L30.16 49.35L7.87 39.49L6.69 38.97C6.65 38.95 6.59 38.93 6.54 38.93C6.45 38.92 4.25 38.6 4.14 30.86ZM28.13 89.02L4.65 78.63C4.61 78.61 4.55 78.6 4.51 78.6C4.41 78.59 2.21 78.27 2.1 70.53C2.06 67.76 2.38 65.76 3.01 64.75C3.41 64.1 3.88 63.96 4.21 63.96C4.38 63.96 4.5 64 4.51 64L28.39 76.29L28.13 89.02ZM58.89 75.94C58.92 76.51 58.97 77.03 59.01 77.42L29.43 89.04L29.68 76.4L36.01 74.35L36.94 74.7L40.44 72.91L56.58 67.67L59.67 66.67C58.68 69.52 58.72 73.43 58.89 75.94ZM60.52 58.76C60.46 58.76 60.41 58.77 60.36 58.8L58.13 59.79L36.88 69.19L36.62 56.46L43.59 52.87L60.47 44.18C60.47 44.18 61.36 43.87 62.01 44.92C62.64 45.93 62.95 47.93 62.91 50.69C62.8 58.43 60.6 58.75 60.52 58.76Z" fill="#FFFFFF" fill-opacity="1.000000" fill-rule="nonzero"/>
	</g>
</svg>
