<svg width="42.000000" height="42.000000" viewBox="0 0 42 42" fill="none" xmlns="http://www.w3.org/2000/svg" xmlns:xlink="http://www.w3.org/1999/xlink">
	<desc>
			Created with Pixso.
	</desc>
	<defs>
		<clipPath id="clip1_245">
			<rect id="books-stack-of-three 2" width="42.000000" height="42.000000" transform="translate(0.000000 -0.999878)" fill="white" fill-opacity="0"/>
		</clipPath>
	</defs>
	<rect id="books-stack-of-three 2" width="42.000000" height="42.000000" transform="translate(0.000000 -0.999878)" fill="#FFFFFF" fill-opacity="0"/>
	<g clip-path="url(#clip1_245)">
		<path id="Vector" d="M39 13.9C38.83 12.62 38.81 10.42 39.99 9.69C40.01 9.67 40.03 9.65 40.05 9.64C41.02 9.33 41.69 8.89 41.16 8.3L26.86 4L3.7 7.21C3.7 7.21 1.05 7.59 1.29 11.71C1.41 13.96 2.12 15.06 2.73 15.6L0.83 16.17C0.3 16.76 0.98 17.19 1.94 17.5C1.96 17.52 1.98 17.54 2 17.55C3.19 18.29 3.16 20.49 2.99 21.77C-1.27 22.98 0.26 23.37 0.26 23.37L1.2 23.6C0.54 24.19 -0.11 25.32 0.01 27.45C0.25 31.57 2.43 31.85 2.43 31.85L17.58 36.78L40.45 31.24C40.45 31.24 41.98 30.85 37.72 29.64C37.55 28.36 37.53 26.16 38.72 25.42C38.74 25.41 38.75 25.39 38.77 25.37C39.74 25.06 40.41 24.63 39.89 24.04L38.89 23.74C39.55 23.34 40.55 22.3 40.71 19.58C40.81 17.72 40.33 16.62 39.76 15.98L41.73 15.5C41.73 15.5 43.26 15.11 39 13.9ZM19.87 13.85L23.71 13.06L36.71 10.38L38.65 9.99C38.03 11.12 38.06 12.67 38.16 13.67C38.18 13.89 38.21 14.1 38.23 14.25L36.11 14.78L19.7 18.86L19.87 13.85ZM3.34 17.86L5.28 18.25L17.76 20.82L18.85 21.04L22.12 21.72L22.29 26.73L5.42 22.54L3.76 22.12C3.78 21.97 3.81 21.76 3.83 21.53C3.94 20.54 3.96 18.99 3.34 17.86ZM2.59 11.52C2.57 10.42 2.76 9.63 3.16 9.22C3.41 8.97 3.7 8.91 3.91 8.91C4.02 8.91 4.09 8.93 4.1 8.93L14.08 12.18L19.05 13.8L18.89 18.85L4.93 14.94L4.19 14.73C4.16 14.73 4.12 14.72 4.1 14.72C4.04 14.71 2.66 14.59 2.59 11.52ZM17.62 34.59L2.91 30.47C2.89 30.46 2.85 30.46 2.82 30.46C2.76 30.45 1.38 30.33 1.31 27.25C1.29 26.16 1.49 25.37 1.88 24.96C2.13 24.7 2.43 24.65 2.63 24.65C2.74 24.65 2.82 24.67 2.82 24.67L17.78 29.54L17.62 34.59ZM36.88 29.4C36.9 29.63 36.93 29.83 36.96 29.99L18.43 34.6L18.59 29.58L22.55 28.77L23.14 28.91L25.33 28.2L35.44 26.12L37.37 25.72C36.75 26.86 36.78 28.41 36.88 29.4ZM37.9 22.59C37.87 22.59 37.83 22.59 37.8 22.6L36.41 22.99L23.1 26.72L22.94 21.67L27.3 20.25L37.87 16.8C37.87 16.8 38.43 16.68 38.84 17.09C39.23 17.5 39.43 18.29 39.4 19.38C39.33 22.46 37.95 22.58 37.9 22.59Z" fill="#720418" fill-opacity="1.000000" fill-rule="nonzero"/>
	</g>
</svg>
